<svg xmlns="http://www.w3.org/2000/svg" xmlns:xlink="http://www.w3.org/2000/svg">

    <!-- Logo principal -->
    <symbol id="logo" viewBox="0 0 50.000000 50.000000" preserveAspectRatio="xMidYMid meet">

        <g transform="translate(0.000000,50.000000) scale(0.100000,-0.100000)" fill="#ffffff" stroke="none">
            <path d="M130 455 c-11 -13 3 -15 120 -15 117 0 131 2 120 15 -10 12 -37 15 -120 15 -83 0 -110 -3 -120 -15z"/>
            <path d="M90 401 c-21 -40 -15 -41 160 -41 175 0 181 1 160 41 -10 17 -23 19 -160 19 -137 0 -150 -2 -160 -19z"/>
            <path d="M105 313 c3 -16 12 -82 21 -147 8 -66 17 -124 20 -128 7 -10 201 -10 208 0 3 4 12 62 20 128 9 65 18 131 21 147 l5 27 -150 0 -149 0 4 -27z m191 -38 c14 -14 35 -25 47 -25 20 0 23 -4 19 -35 -3 -26 -9 -35 -23 -35 -10 0 -29 -11 -43 -25 -32 -32 -60 -32 -92 0 -14 14 -33 25 -43 25 -14 0 -20 9 -23 35 -4 31 -1 35 19 35 12 0 33 11 47 25 14 14 35 25 46 25 12 0 32 -11 46 -25z"/>
            <path d="M232 248 c-17 -17 -15 -53 3 -68 32 -26 63 38 33 68 -15 15 -21 15 -36 0z"/>
        </g>
    </symbol>


    <!-- Icon de moon -->
    <symbol id="moon" width="24"  height="24"  viewBox="0 0 24 24"  fill="#ffffff"  stroke="#ffffff"  stroke-width="2"  stroke-linecap="round"  stroke-linejoin="round"  class="icon icon-tabler icons-tabler-outline icon-tabler-moon"><path stroke="none" d="M0 0h24v24H0z" fill="none"/><path d="M12 3c.132 0 .263 0 .393 0a7.5 7.5 0 0 0 7.92 12.446a9 9 0 1 1 -8.313 -12.454z" />
    </symbol>

    <!-- Icon Sun -->
    <symbol id="sun" width="24"  height="24"  viewBox="0 0 24 24"  fill="#ffffff"  stroke="#ffffff"  stroke-width="2"  stroke-linecap="round"  stroke-linejoin="round"><path stroke="none" d="M0 0h24v24H0z" fill="none"/><path d="M12 12m-4 0a4 4 0 1 0 8 0a4 4 0 1 0 -8 0" /><path d="M3 12h1m8 -9v1m8 8h1m-9 8v1m-6.4 -15.4l.7 .7m12.1 -.7l-.7 .7m0 11.4l.7 .7m-12.1 -.7l-.7 .7" />
    </symbol>

    <!-- Logo arrow right-->
    <symbol id="arrow-right"  xmlns="http://www.w3.org/2000/svg"  width="24"  height="24"  viewBox="0 0 24 24"  fill="none"  stroke="currentColor"  stroke-width="2"  stroke-linecap="round"  stroke-linejoin="round"  class="icon icon-tabler icons-tabler-outline icon-tabler-arrow-right"><path stroke="none" d="M0 0h24v24H0z" fill="none"/><path d="M5 12l14 0" /><path d="M13 18l6 -6" /><path d="M13 6l6 6" />
    </symbol>

    <!-- Logo Linkedin -->
    <symbol id="linkedin" xmlns="http://www.w3.org/2000/svg"  width="24"  height="24"  viewBox="0 0 24 24"  fill="currentColor"  class="icon icon-tabler icons-tabler-filled icon-tabler-brand-linkedin"><path stroke="none" d="M0 0h24v24H0z" fill="none"/><path d="M17 2a5 5 0 0 1 5 5v10a5 5 0 0 1 -5 5h-10a5 5 0 0 1 -5 -5v-10a5 5 0 0 1 5 -5zm-9 8a1 1 0 0 0 -1 1v5a1 1 0 0 0 2 0v-5a1 1 0 0 0 -1 -1m6 0a3 3 0 0 0 -1.168 .236l-.125 .057a1 1 0 0 0 -1.707 .707v5a1 1 0 0 0 2 0v-3a1 1 0 0 1 2 0v3a1 1 0 0 0 2 0v-3a3 3 0 0 0 -3 -3m-6 -3a1 1 0 0 0 -.993 .883l-.007 .127a1 1 0 0 0 1.993 .117l.007 -.127a1 1 0 0 0 -1 -1" />
    </symbol>

    <!-- Logo Github -->
    <symbol id="github"  xmlns="http://www.w3.org/2000/svg"  width="24"  height="24"  viewBox="0 0 24 24"  fill="currentColor"  class="icon icon-tabler icons-tabler-filled icon-tabler-brand-github"><path stroke="none" d="M0 0h24v24H0z" fill="none"/><path d="M5.315 2.1c.791 -.113 1.9 .145 3.333 .966l.272 .161l.16 .1l.397 -.083a13.3 13.3 0 0 1 4.59 -.08l.456 .08l.396 .083l.161 -.1c1.385 -.84 2.487 -1.17 3.322 -1.148l.164 .008l.147 .017l.076 .014l.05 .011l.144 .047a1 1 0 0 1 .53 .514a5.2 5.2 0 0 1 .397 2.91l-.047 .267l-.046 .196l.123 .163c.574 .795 .93 1.728 1.03 2.707l.023 .295l.007 .272c0 3.855 -1.659 5.883 -4.644 6.68l-.245 .061l-.132 .029l.014 .161l.008 .157l.004 .365l-.002 .213l-.003 3.834a1 1 0 0 1 -.883 .993l-.117 .007h-6a1 1 0 0 1 -.993 -.883l-.007 -.117v-.734c-1.818 .26 -3.03 -.424 -4.11 -1.878l-.535 -.766c-.28 -.396 -.455 -.579 -.589 -.644l-.048 -.019a1 1 0 0 1 .564 -1.918c.642 .188 1.074 .568 1.57 1.239l.538 .769c.76 1.079 1.36 1.459 2.609 1.191l.001 -.678l-.018 -.168a5.03 5.03 0 0 1 -.021 -.824l.017 -.185l.019 -.12l-.108 -.024c-2.976 -.71 -4.703 -2.573 -4.875 -6.139l-.01 -.31l-.004 -.292a5.6 5.6 0 0 1 .908 -3.051l.152 -.222l.122 -.163l-.045 -.196a5.2 5.2 0 0 1 .145 -2.642l.1 -.282l.106 -.253a1 1 0 0 1 .529 -.514l.144 -.047l.154 -.03z" />
    </symbol>

    <!-- Logo preview -->
    <symbol  id="preview" xmlns="http://www.w3.org/2000/svg"  width="24"  height="24"  viewBox="0 0 24 24"  fill="none"  stroke="currentColor"  stroke-width="2"  stroke-linecap="round"  stroke-linejoin="round"  class="icon icon-tabler icons-tabler-outline icon-tabler-eye-share"><path stroke="none" d="M0 0h24v24H0z" fill="none"/><path d="M10 12a2 2 0 1 0 4 0a2 2 0 0 0 -4 0" /><path d="M12.597 17.981a9.467 9.467 0 0 1 -.597 .019c-3.6 0 -6.6 -2 -9 -6c2.4 -4 5.4 -6 9 -6c3.6 0 6.6 2 9 6c-.205 .342 -.415 .67 -.63 .983" /><path d="M16 22l5 -5" /><path d="M21 21.5v-4.5h-4.5" /></symbol>

    
</svg>