<?xml version="1.0" standalone="no"?>
<!DOCTYPE svg PUBLIC "-//W3C//DTD SVG 20010904//EN"
 "http://www.w3.org/TR/2001/REC-SVG-20010904/DTD/svg10.dtd">
<svg version="1.0" xmlns="http://www.w3.org/2000/svg"
 width="50.000000pt" height="50.000000pt" viewBox="0 0 50.000000 50.000000"
 preserveAspectRatio="xMidYMid meet">

<g transform="translate(0.000000,50.000000) scale(0.100000,-0.100000)"
fill="#000000" stroke="none">
<path d="M130 455 c-11 -13 3 -15 120 -15 117 0 131 2 120 15 -10 12 -37 15
-120 15 -83 0 -110 -3 -120 -15z"/>
<path d="M90 401 c-21 -40 -15 -41 160 -41 175 0 181 1 160 41 -10 17 -23 19
-160 19 -137 0 -150 -2 -160 -19z"/>
<path d="M105 313 c3 -16 12 -82 21 -147 8 -66 17 -124 20 -128 7 -10 201 -10
208 0 3 4 12 62 20 128 9 65 18 131 21 147 l5 27 -150 0 -149 0 4 -27z m191
-38 c14 -14 35 -25 47 -25 20 0 23 -4 19 -35 -3 -26 -9 -35 -23 -35 -10 0 -29
-11 -43 -25 -32 -32 -60 -32 -92 0 -14 14 -33 25 -43 25 -14 0 -20 9 -23 35
-4 31 -1 35 19 35 12 0 33 11 47 25 14 14 35 25 46 25 12 0 32 -11 46 -25z"/>
<path d="M232 248 c-17 -17 -15 -53 3 -68 32 -26 63 38 33 68 -15 15 -21 15
-36 0z"/>
</g>
</svg>
